<?xml version="1.0" encoding="utf-8"?>
<svg xmlns="http://www.w3.org/2000/svg" xmlns:xlink="http://www.w3.org/1999/xlink" width="400" height="300" viewBox="0 0 1600 1200">
<defs>
  <clipPath id="clip320">
    <rect x="0" y="0" width="1600" height="1200"/>
  </clipPath>
</defs>
<path clip-path="url(#clip320)" d="
M0 1200 L1600 1200 L1600 0 L0 0  Z
  " fill="#ffffff" fill-rule="evenodd" fill-opacity="1"/>
<defs>
  <clipPath id="clip321">
    <rect x="320" y="0" width="1121" height="1121"/>
  </clipPath>
</defs>
<path clip-path="url(#clip320)" d="
M200.399 1016.92 L1552.76 1016.92 L1552.76 47.2441 L200.399 47.2441  Z
  " fill="#ffffff" fill-rule="evenodd" fill-opacity="1"/>
<defs>
  <clipPath id="clip322">
    <rect x="200" y="47" width="1353" height="971"/>
  </clipPath>
</defs>
<polyline clip-path="url(#clip322)" style="stroke:#000000; stroke-width:2; stroke-opacity:0.1; fill:none" points="
  238.019,1016.92 238.019,47.2441 
  "/>
<polyline clip-path="url(#clip322)" style="stroke:#000000; stroke-width:2; stroke-opacity:0.1; fill:none" points="
  565.149,1016.92 565.149,47.2441 
  "/>
<polyline clip-path="url(#clip322)" style="stroke:#000000; stroke-width:2; stroke-opacity:0.1; fill:none" points="
  892.28,1016.92 892.28,47.2441 
  "/>
<polyline clip-path="url(#clip322)" style="stroke:#000000; stroke-width:2; stroke-opacity:0.1; fill:none" points="
  1219.41,1016.92 1219.41,47.2441 
  "/>
<polyline clip-path="url(#clip322)" style="stroke:#000000; stroke-width:2; stroke-opacity:0.1; fill:none" points="
  1546.54,1016.92 1546.54,47.2441 
  "/>
<polyline clip-path="url(#clip320)" style="stroke:#000000; stroke-width:4; stroke-opacity:1; fill:none" points="
  200.399,1016.92 1552.76,1016.92 
  "/>
<polyline clip-path="url(#clip320)" style="stroke:#000000; stroke-width:4; stroke-opacity:1; fill:none" points="
  200.399,47.2441 1552.76,47.2441 
  "/>
<polyline clip-path="url(#clip320)" style="stroke:#000000; stroke-width:4; stroke-opacity:1; fill:none" points="
  238.019,1016.92 238.019,1005.28 
  "/>
<polyline clip-path="url(#clip320)" style="stroke:#000000; stroke-width:4; stroke-opacity:1; fill:none" points="
  565.149,1016.92 565.149,1005.28 
  "/>
<polyline clip-path="url(#clip320)" style="stroke:#000000; stroke-width:4; stroke-opacity:1; fill:none" points="
  892.28,1016.92 892.28,1005.28 
  "/>
<polyline clip-path="url(#clip320)" style="stroke:#000000; stroke-width:4; stroke-opacity:1; fill:none" points="
  1219.41,1016.92 1219.41,1005.28 
  "/>
<polyline clip-path="url(#clip320)" style="stroke:#000000; stroke-width:4; stroke-opacity:1; fill:none" points="
  1546.54,1016.92 1546.54,1005.28 
  "/>
<path clip-path="url(#clip320)" d="M 0 0 M238.019 1039.71 Q234.408 1039.71 232.579 1043.28 Q230.774 1046.82 230.774 1053.95 Q230.774 1061.05 232.579 1064.62 Q234.408 1068.16 238.019 1068.16 Q241.653 1068.16 243.459 1064.62 Q245.287 1061.05 245.287 1053.95 Q245.287 1046.82 243.459 1043.28 Q241.653 1039.71 238.019 1039.71 M238.019 1036.01 Q243.829 1036.01 246.885 1040.61 Q249.963 1045.2 249.963 1053.95 Q249.963 1062.67 246.885 1067.28 Q243.829 1071.86 238.019 1071.86 Q232.209 1071.86 229.13 1067.28 Q226.075 1062.67 226.075 1053.95 Q226.075 1045.2 229.13 1040.61 Q232.209 1036.01 238.019 1036.01 Z" fill="#000000" fill-rule="evenodd" fill-opacity="1" /><path clip-path="url(#clip320)" d="M 0 0 M528.413 1036.63 L546.77 1036.63 L546.77 1040.57 L532.696 1040.57 L532.696 1049.04 Q533.714 1048.69 534.733 1048.53 Q535.751 1048.34 536.77 1048.34 Q542.557 1048.34 545.936 1051.52 Q549.316 1054.69 549.316 1060.1 Q549.316 1065.68 545.844 1068.78 Q542.372 1071.86 536.052 1071.86 Q533.876 1071.86 531.608 1071.49 Q529.362 1071.12 526.955 1070.38 L526.955 1065.68 Q529.038 1066.82 531.261 1067.37 Q533.483 1067.93 535.96 1067.93 Q539.964 1067.93 542.302 1065.82 Q544.64 1063.72 544.64 1060.1 Q544.64 1056.49 542.302 1054.39 Q539.964 1052.28 535.96 1052.28 Q534.085 1052.28 532.21 1052.7 Q530.358 1053.11 528.413 1053.99 L528.413 1036.63 Z" fill="#000000" fill-rule="evenodd" fill-opacity="1" /><path clip-path="url(#clip320)" d="M 0 0 M564.385 1039.71 Q560.774 1039.71 558.946 1043.28 Q557.14 1046.82 557.14 1053.95 Q557.14 1061.05 558.946 1064.62 Q560.774 1068.16 564.385 1068.16 Q568.02 1068.16 569.825 1064.62 Q571.654 1061.05 571.654 1053.95 Q571.654 1046.82 569.825 1043.28 Q568.02 1039.71 564.385 1039.71 M564.385 1036.01 Q570.196 1036.01 573.251 1040.61 Q576.33 1045.2 576.33 1053.95 Q576.33 1062.67 573.251 1067.28 Q570.196 1071.86 564.385 1071.86 Q558.575 1071.86 555.497 1067.28 Q552.441 1062.67 552.441 1053.95 Q552.441 1045.2 555.497 1040.61 Q558.575 1036.01 564.385 1036.01 Z" fill="#000000" fill-rule="evenodd" fill-opacity="1" /><path clip-path="url(#clip320)" d="M 0 0 M591.399 1039.71 Q587.788 1039.71 585.959 1043.28 Q584.154 1046.82 584.154 1053.95 Q584.154 1061.05 585.959 1064.62 Q587.788 1068.16 591.399 1068.16 Q595.033 1068.16 596.839 1064.62 Q598.668 1061.05 598.668 1053.95 Q598.668 1046.82 596.839 1043.28 Q595.033 1039.71 591.399 1039.71 M591.399 1036.01 Q597.209 1036.01 600.265 1040.61 Q603.344 1045.2 603.344 1053.95 Q603.344 1062.67 600.265 1067.28 Q597.209 1071.86 591.399 1071.86 Q585.589 1071.86 582.51 1067.28 Q579.455 1062.67 579.455 1053.95 Q579.455 1045.2 582.51 1040.61 Q585.589 1036.01 591.399 1036.01 Z" fill="#000000" fill-rule="evenodd" fill-opacity="1" /><path clip-path="url(#clip320)" d="M 0 0 M842.141 1067.26 L849.78 1067.26 L849.78 1040.89 L841.47 1042.56 L841.47 1038.3 L849.734 1036.63 L854.41 1036.63 L854.41 1067.26 L862.048 1067.26 L862.048 1071.19 L842.141 1071.19 L842.141 1067.26 Z" fill="#000000" fill-rule="evenodd" fill-opacity="1" /><path clip-path="url(#clip320)" d="M 0 0 M877.118 1039.71 Q873.507 1039.71 871.678 1043.28 Q869.872 1046.82 869.872 1053.95 Q869.872 1061.05 871.678 1064.62 Q873.507 1068.16 877.118 1068.16 Q880.752 1068.16 882.558 1064.62 Q884.386 1061.05 884.386 1053.95 Q884.386 1046.82 882.558 1043.28 Q880.752 1039.71 877.118 1039.71 M877.118 1036.01 Q882.928 1036.01 885.983 1040.61 Q889.062 1045.2 889.062 1053.95 Q889.062 1062.67 885.983 1067.28 Q882.928 1071.86 877.118 1071.86 Q871.308 1071.86 868.229 1067.28 Q865.173 1062.67 865.173 1053.95 Q865.173 1045.2 868.229 1040.61 Q871.308 1036.01 877.118 1036.01 Z" fill="#000000" fill-rule="evenodd" fill-opacity="1" /><path clip-path="url(#clip320)" d="M 0 0 M904.131 1039.71 Q900.52 1039.71 898.692 1043.28 Q896.886 1046.82 896.886 1053.95 Q896.886 1061.05 898.692 1064.62 Q900.52 1068.16 904.131 1068.16 Q907.766 1068.16 909.571 1064.62 Q911.4 1061.05 911.4 1053.95 Q911.4 1046.82 909.571 1043.28 Q907.766 1039.71 904.131 1039.71 M904.131 1036.01 Q909.942 1036.01 912.997 1040.61 Q916.076 1045.2 916.076 1053.95 Q916.076 1062.67 912.997 1067.28 Q909.942 1071.86 904.131 1071.86 Q898.321 1071.86 895.243 1067.28 Q892.187 1062.67 892.187 1053.95 Q892.187 1045.2 895.243 1040.61 Q898.321 1036.01 904.131 1036.01 Z" fill="#000000" fill-rule="evenodd" fill-opacity="1" /><path clip-path="url(#clip320)" d="M 0 0 M931.145 1039.71 Q927.534 1039.71 925.705 1043.28 Q923.9 1046.82 923.9 1053.95 Q923.9 1061.05 925.705 1064.62 Q927.534 1068.16 931.145 1068.16 Q934.779 1068.16 936.585 1064.62 Q938.414 1061.05 938.414 1053.95 Q938.414 1046.82 936.585 1043.28 Q934.779 1039.71 931.145 1039.71 M931.145 1036.01 Q936.955 1036.01 940.011 1040.61 Q943.09 1045.2 943.09 1053.95 Q943.09 1062.67 940.011 1067.28 Q936.955 1071.86 931.145 1071.86 Q925.335 1071.86 922.256 1067.28 Q919.201 1062.67 919.201 1053.95 Q919.201 1045.2 922.256 1040.61 Q925.335 1036.01 931.145 1036.01 Z" fill="#000000" fill-rule="evenodd" fill-opacity="1" /><path clip-path="url(#clip320)" d="M 0 0 M1169.77 1067.26 L1177.41 1067.26 L1177.41 1040.89 L1169.1 1042.56 L1169.1 1038.3 L1177.36 1036.63 L1182.04 1036.63 L1182.04 1067.26 L1189.68 1067.26 L1189.68 1071.19 L1169.77 1071.19 L1169.77 1067.26 Z" fill="#000000" fill-rule="evenodd" fill-opacity="1" /><path clip-path="url(#clip320)" d="M 0 0 M1194.79 1036.63 L1213.15 1036.63 L1213.15 1040.57 L1199.07 1040.57 L1199.07 1049.04 Q1200.09 1048.69 1201.11 1048.53 Q1202.13 1048.34 1203.15 1048.34 Q1208.94 1048.34 1212.32 1051.52 Q1215.69 1054.69 1215.69 1060.1 Q1215.69 1065.68 1212.22 1068.78 Q1208.75 1071.86 1202.43 1071.86 Q1200.26 1071.86 1197.99 1071.49 Q1195.74 1071.12 1193.33 1070.38 L1193.33 1065.68 Q1195.42 1066.82 1197.64 1067.37 Q1199.86 1067.93 1202.34 1067.93 Q1206.34 1067.93 1208.68 1065.82 Q1211.02 1063.72 1211.02 1060.1 Q1211.02 1056.49 1208.68 1054.39 Q1206.34 1052.28 1202.34 1052.28 Q1200.46 1052.28 1198.59 1052.7 Q1196.74 1053.11 1194.79 1053.99 L1194.79 1036.63 Z" fill="#000000" fill-rule="evenodd" fill-opacity="1" /><path clip-path="url(#clip320)" d="M 0 0 M1230.76 1039.71 Q1227.15 1039.71 1225.32 1043.28 Q1223.52 1046.82 1223.52 1053.95 Q1223.52 1061.05 1225.32 1064.62 Q1227.15 1068.16 1230.76 1068.16 Q1234.4 1068.16 1236.2 1064.62 Q1238.03 1061.05 1238.03 1053.95 Q1238.03 1046.82 1236.2 1043.28 Q1234.4 1039.71 1230.76 1039.71 M1230.76 1036.01 Q1236.57 1036.01 1239.63 1040.61 Q1242.71 1045.2 1242.71 1053.95 Q1242.71 1062.67 1239.63 1067.28 Q1236.57 1071.86 1230.76 1071.86 Q1224.95 1071.86 1221.88 1067.28 Q1218.82 1062.67 1218.82 1053.95 Q1218.82 1045.2 1221.88 1040.61 Q1224.95 1036.01 1230.76 1036.01 Z" fill="#000000" fill-rule="evenodd" fill-opacity="1" /><path clip-path="url(#clip320)" d="M 0 0 M1257.78 1039.71 Q1254.17 1039.71 1252.34 1043.28 Q1250.53 1046.82 1250.53 1053.95 Q1250.53 1061.05 1252.34 1064.62 Q1254.17 1068.16 1257.78 1068.16 Q1261.41 1068.16 1263.22 1064.62 Q1265.05 1061.05 1265.05 1053.95 Q1265.05 1046.82 1263.22 1043.28 Q1261.41 1039.71 1257.78 1039.71 M1257.78 1036.01 Q1263.59 1036.01 1266.64 1040.61 Q1269.72 1045.2 1269.72 1053.95 Q1269.72 1062.67 1266.64 1067.28 Q1263.59 1071.86 1257.78 1071.86 Q1251.97 1071.86 1248.89 1067.28 Q1245.83 1062.67 1245.83 1053.95 Q1245.83 1045.2 1248.89 1040.61 Q1251.97 1036.01 1257.78 1036.01 Z" fill="#000000" fill-rule="evenodd" fill-opacity="1" /><path clip-path="url(#clip320)" d="M 0 0 M1500.67 1067.26 L1516.99 1067.26 L1516.99 1071.19 L1495.05 1071.19 L1495.05 1067.26 Q1497.71 1064.5 1502.29 1059.87 Q1506.9 1055.22 1508.08 1053.88 Q1510.33 1051.35 1511.2 1049.62 Q1512.11 1047.86 1512.11 1046.17 Q1512.11 1043.41 1510.16 1041.68 Q1508.24 1039.94 1505.14 1039.94 Q1502.94 1039.94 1500.49 1040.71 Q1498.06 1041.47 1495.28 1043.02 L1495.28 1038.3 Q1498.1 1037.16 1500.56 1036.59 Q1503.01 1036.01 1505.05 1036.01 Q1510.42 1036.01 1513.61 1038.69 Q1516.81 1041.38 1516.81 1045.87 Q1516.81 1048 1516 1049.92 Q1515.21 1051.82 1513.1 1054.41 Q1512.52 1055.08 1509.42 1058.3 Q1506.32 1061.49 1500.67 1067.26 Z" fill="#000000" fill-rule="evenodd" fill-opacity="1" /><path clip-path="url(#clip320)" d="M 0 0 M1532.06 1039.71 Q1528.45 1039.71 1526.62 1043.28 Q1524.82 1046.82 1524.82 1053.95 Q1524.82 1061.05 1526.62 1064.62 Q1528.45 1068.16 1532.06 1068.16 Q1535.7 1068.16 1537.5 1064.62 Q1539.33 1061.05 1539.33 1053.95 Q1539.33 1046.82 1537.5 1043.28 Q1535.7 1039.71 1532.06 1039.71 M1532.06 1036.01 Q1537.87 1036.01 1540.93 1040.61 Q1544.01 1045.2 1544.01 1053.95 Q1544.01 1062.67 1540.93 1067.28 Q1537.87 1071.86 1532.06 1071.86 Q1526.25 1071.86 1523.17 1067.28 Q1520.12 1062.67 1520.12 1053.95 Q1520.12 1045.2 1523.17 1040.61 Q1526.25 1036.01 1532.06 1036.01 Z" fill="#000000" fill-rule="evenodd" fill-opacity="1" /><path clip-path="url(#clip320)" d="M 0 0 M1559.08 1039.71 Q1555.46 1039.71 1553.64 1043.28 Q1551.83 1046.82 1551.83 1053.95 Q1551.83 1061.05 1553.64 1064.62 Q1555.46 1068.16 1559.08 1068.16 Q1562.71 1068.16 1564.51 1064.62 Q1566.34 1061.05 1566.34 1053.95 Q1566.34 1046.82 1564.51 1043.28 Q1562.71 1039.71 1559.08 1039.71 M1559.08 1036.01 Q1564.89 1036.01 1567.94 1040.61 Q1571.02 1045.2 1571.02 1053.95 Q1571.02 1062.67 1567.94 1067.28 Q1564.89 1071.86 1559.08 1071.86 Q1553.26 1071.86 1550.19 1067.28 Q1547.13 1062.67 1547.13 1053.95 Q1547.13 1045.2 1550.19 1040.61 Q1553.26 1036.01 1559.08 1036.01 Z" fill="#000000" fill-rule="evenodd" fill-opacity="1" /><path clip-path="url(#clip320)" d="M 0 0 M1586.09 1039.71 Q1582.48 1039.71 1580.65 1043.28 Q1578.84 1046.82 1578.84 1053.95 Q1578.84 1061.05 1580.65 1064.62 Q1582.48 1068.16 1586.09 1068.16 Q1589.72 1068.16 1591.53 1064.62 Q1593.36 1061.05 1593.36 1053.95 Q1593.36 1046.82 1591.53 1043.28 Q1589.72 1039.71 1586.09 1039.71 M1586.09 1036.01 Q1591.9 1036.01 1594.95 1040.61 Q1598.03 1045.2 1598.03 1053.95 Q1598.03 1062.67 1594.95 1067.28 Q1591.9 1071.86 1586.09 1071.86 Q1580.28 1071.86 1577.2 1067.28 Q1574.14 1062.67 1574.14 1053.95 Q1574.14 1045.2 1577.2 1040.61 Q1580.28 1036.01 1586.09 1036.01 Z" fill="#000000" fill-rule="evenodd" fill-opacity="1" /><path clip-path="url(#clip320)" d="M 0 0 M718.947 1094.26 L728.527 1094.26 L740.654 1126.6 L752.844 1094.26 L762.424 1094.26 L762.424 1141.78 L756.154 1141.78 L756.154 1100.06 L743.9 1132.65 L737.439 1132.65 L725.185 1100.06 L725.185 1141.78 L718.947 1141.78 L718.947 1094.26 Z" fill="#000000" fill-rule="evenodd" fill-opacity="1" /><path clip-path="url(#clip320)" d="M 0 0 M784.768 1123.86 Q777.67 1123.86 774.933 1125.49 Q772.196 1127.11 772.196 1131.03 Q772.196 1134.14 774.233 1135.99 Q776.302 1137.81 779.835 1137.81 Q784.704 1137.81 787.633 1134.37 Q790.593 1130.9 790.593 1125.17 L790.593 1123.86 L784.768 1123.86 M796.449 1121.45 L796.449 1141.78 L790.593 1141.78 L790.593 1136.37 Q788.587 1139.62 785.596 1141.18 Q782.604 1142.71 778.275 1142.71 Q772.8 1142.71 769.554 1139.65 Q766.339 1136.56 766.339 1131.41 Q766.339 1125.39 770.35 1122.34 Q774.392 1119.28 782.381 1119.28 L790.593 1119.28 L790.593 1118.71 Q790.593 1114.67 787.919 1112.47 Q785.277 1110.24 780.471 1110.24 Q777.416 1110.24 774.519 1110.97 Q771.623 1111.71 768.949 1113.17 L768.949 1107.76 Q772.164 1106.52 775.188 1105.91 Q778.211 1105.28 781.076 1105.28 Q788.81 1105.28 792.63 1109.29 Q796.449 1113.3 796.449 1121.45 Z" fill="#000000" fill-rule="evenodd" fill-opacity="1" /><path clip-path="url(#clip320)" d="M 0 0 M808.385 1096.01 L808.385 1106.14 L820.448 1106.14 L820.448 1110.69 L808.385 1110.69 L808.385 1130.04 Q808.385 1134.4 809.562 1135.64 Q810.772 1136.88 814.432 1136.88 L820.448 1136.88 L820.448 1141.78 L814.432 1141.78 Q807.653 1141.78 805.075 1139.27 Q802.497 1136.72 802.497 1130.04 L802.497 1110.69 L798.2 1110.69 L798.2 1106.14 L802.497 1106.14 L802.497 1096.01 L808.385 1096.01 Z" fill="#000000" fill-rule="evenodd" fill-opacity="1" /><path clip-path="url(#clip320)" d="M 0 0 M847.247 1111.61 Q846.261 1111.04 845.083 1110.78 Q843.937 1110.5 842.537 1110.5 Q837.572 1110.5 834.898 1113.74 Q832.256 1116.96 832.256 1123.01 L832.256 1141.78 L826.368 1141.78 L826.368 1106.14 L832.256 1106.14 L832.256 1111.67 Q834.102 1108.43 837.062 1106.87 Q840.022 1105.28 844.256 1105.28 Q844.86 1105.28 845.592 1105.37 Q846.324 1105.44 847.216 1105.59 L847.247 1111.61 Z" fill="#000000" fill-rule="evenodd" fill-opacity="1" /><path clip-path="url(#clip320)" d="M 0 0 M853.39 1106.14 L859.247 1106.14 L859.247 1141.78 L853.39 1141.78 L853.39 1106.14 M853.39 1092.26 L859.247 1092.26 L859.247 1099.67 L853.39 1099.67 L853.39 1092.26 Z" fill="#000000" fill-rule="evenodd" fill-opacity="1" /><path clip-path="url(#clip320)" d="M 0 0 M895.022 1106.14 L882.132 1123.48 L895.69 1141.78 L888.784 1141.78 L878.408 1127.78 L868.031 1141.78 L861.125 1141.78 L874.97 1123.13 L862.302 1106.14 L869.209 1106.14 L878.662 1118.84 L888.115 1106.14 L895.022 1106.14 Z" fill="#000000" fill-rule="evenodd" fill-opacity="1" /><path clip-path="url(#clip320)" d="M 0 0 M951.295 1095.82 L951.295 1102.09 Q947.635 1100.34 944.388 1099.48 Q941.142 1098.62 938.118 1098.62 Q932.866 1098.62 930.002 1100.66 Q927.169 1102.7 927.169 1106.45 Q927.169 1109.61 929.047 1111.23 Q930.956 1112.82 936.24 1113.81 L940.123 1114.6 Q947.316 1115.97 950.722 1119.44 Q954.159 1122.88 954.159 1128.67 Q954.159 1135.58 949.513 1139.14 Q944.897 1142.71 935.954 1142.71 Q932.58 1142.71 928.76 1141.94 Q924.973 1141.18 920.899 1139.68 L920.899 1133.06 Q924.814 1135.26 928.569 1136.37 Q932.325 1137.49 935.954 1137.49 Q941.46 1137.49 944.452 1135.32 Q947.444 1133.16 947.444 1129.15 Q947.444 1125.65 945.279 1123.67 Q943.147 1121.7 938.245 1120.71 L934.33 1119.95 Q927.137 1118.52 923.922 1115.46 Q920.708 1112.41 920.708 1106.96 Q920.708 1100.66 925.132 1097.03 Q929.588 1093.4 937.386 1093.4 Q940.728 1093.4 944.197 1094.01 Q947.666 1094.61 951.295 1095.82 Z" fill="#000000" fill-rule="evenodd" fill-opacity="1" /><path clip-path="url(#clip320)" d="M 0 0 M960.302 1106.14 L966.159 1106.14 L966.159 1141.78 L960.302 1141.78 L960.302 1106.14 M960.302 1092.26 L966.159 1092.26 L966.159 1099.67 L960.302 1099.67 L960.302 1092.26 Z" fill="#000000" fill-rule="evenodd" fill-opacity="1" /><path clip-path="url(#clip320)" d="M 0 0 M969.755 1106.14 L997.574 1106.14 L997.574 1111.48 L975.548 1137.11 L997.574 1137.11 L997.574 1141.78 L968.96 1141.78 L968.96 1136.44 L990.985 1110.81 L969.755 1110.81 L969.755 1106.14 Z" fill="#000000" fill-rule="evenodd" fill-opacity="1" /><path clip-path="url(#clip320)" d="M 0 0 M1034.21 1122.5 L1034.21 1125.36 L1007.28 1125.36 Q1007.66 1131.41 1010.91 1134.59 Q1014.19 1137.74 1020.01 1137.74 Q1023.39 1137.74 1026.54 1136.91 Q1029.72 1136.09 1032.84 1134.43 L1032.84 1139.97 Q1029.69 1141.31 1026.38 1142.01 Q1023.07 1142.71 1019.66 1142.71 Q1011.13 1142.71 1006.14 1137.74 Q1001.17 1132.78 1001.17 1124.31 Q1001.17 1115.56 1005.88 1110.43 Q1010.62 1105.28 1018.64 1105.28 Q1025.84 1105.28 1030.01 1109.92 Q1034.21 1114.54 1034.21 1122.5 M1028.35 1120.78 Q1028.29 1115.97 1025.65 1113.11 Q1023.04 1110.24 1018.71 1110.24 Q1013.81 1110.24 1010.85 1113.01 Q1007.92 1115.78 1007.47 1120.81 L1028.35 1120.78 Z" fill="#000000" fill-rule="evenodd" fill-opacity="1" /><polyline clip-path="url(#clip322)" style="stroke:#000000; stroke-width:2; stroke-opacity:0.1; fill:none" points="
  200.399,908.76 1552.76,908.76 
  "/>
<polyline clip-path="url(#clip322)" style="stroke:#000000; stroke-width:2; stroke-opacity:0.1; fill:none" points="
  200.399,774.232 1552.76,774.232 
  "/>
<polyline clip-path="url(#clip322)" style="stroke:#000000; stroke-width:2; stroke-opacity:0.1; fill:none" points="
  200.399,639.704 1552.76,639.704 
  "/>
<polyline clip-path="url(#clip322)" style="stroke:#000000; stroke-width:2; stroke-opacity:0.1; fill:none" points="
  200.399,505.176 1552.76,505.176 
  "/>
<polyline clip-path="url(#clip322)" style="stroke:#000000; stroke-width:2; stroke-opacity:0.1; fill:none" points="
  200.399,370.649 1552.76,370.649 
  "/>
<polyline clip-path="url(#clip322)" style="stroke:#000000; stroke-width:2; stroke-opacity:0.1; fill:none" points="
  200.399,236.121 1552.76,236.121 
  "/>
<polyline clip-path="url(#clip322)" style="stroke:#000000; stroke-width:2; stroke-opacity:0.1; fill:none" points="
  200.399,101.593 1552.76,101.593 
  "/>
<polyline clip-path="url(#clip320)" style="stroke:#000000; stroke-width:4; stroke-opacity:1; fill:none" points="
  200.399,1016.92 200.399,47.2441 
  "/>
<polyline clip-path="url(#clip320)" style="stroke:#000000; stroke-width:4; stroke-opacity:1; fill:none" points="
  1552.76,1016.92 1552.76,47.2441 
  "/>
<polyline clip-path="url(#clip320)" style="stroke:#000000; stroke-width:4; stroke-opacity:1; fill:none" points="
  200.399,908.76 216.627,908.76 
  "/>
<polyline clip-path="url(#clip320)" style="stroke:#000000; stroke-width:4; stroke-opacity:1; fill:none" points="
  200.399,774.232 216.627,774.232 
  "/>
<polyline clip-path="url(#clip320)" style="stroke:#000000; stroke-width:4; stroke-opacity:1; fill:none" points="
  200.399,639.704 216.627,639.704 
  "/>
<polyline clip-path="url(#clip320)" style="stroke:#000000; stroke-width:4; stroke-opacity:1; fill:none" points="
  200.399,505.176 216.627,505.176 
  "/>
<polyline clip-path="url(#clip320)" style="stroke:#000000; stroke-width:4; stroke-opacity:1; fill:none" points="
  200.399,370.649 216.627,370.649 
  "/>
<polyline clip-path="url(#clip320)" style="stroke:#000000; stroke-width:4; stroke-opacity:1; fill:none" points="
  200.399,236.121 216.627,236.121 
  "/>
<polyline clip-path="url(#clip320)" style="stroke:#000000; stroke-width:4; stroke-opacity:1; fill:none" points="
  200.399,101.593 216.627,101.593 
  "/>
<path clip-path="url(#clip320)" d="M 0 0 M129.478 922.104 L137.117 922.104 L137.117 895.739 L128.807 897.405 L128.807 893.146 L137.07 891.48 L141.746 891.48 L141.746 922.104 L149.385 922.104 L149.385 926.04 L129.478 926.04 L129.478 922.104 Z" fill="#000000" fill-rule="evenodd" fill-opacity="1" /><path clip-path="url(#clip320)" d="M 0 0 M164.455 894.558 Q160.843 894.558 159.015 898.123 Q157.209 901.665 157.209 908.794 Q157.209 915.901 159.015 919.466 Q160.843 923.007 164.455 923.007 Q168.089 923.007 169.894 919.466 Q171.723 915.901 171.723 908.794 Q171.723 901.665 169.894 898.123 Q168.089 894.558 164.455 894.558 M164.455 890.855 Q170.265 890.855 173.32 895.461 Q176.399 900.044 176.399 908.794 Q176.399 917.521 173.32 922.128 Q170.265 926.711 164.455 926.711 Q158.644 926.711 155.566 922.128 Q152.51 917.521 152.51 908.794 Q152.51 900.044 155.566 895.461 Q158.644 890.855 164.455 890.855 Z" fill="#000000" fill-rule="evenodd" fill-opacity="1" /><path clip-path="url(#clip320)" d="M 0 0 M133.066 787.577 L149.385 787.577 L149.385 791.512 L127.441 791.512 L127.441 787.577 Q130.103 784.822 134.686 780.192 Q139.293 775.54 140.473 774.197 Q142.719 771.674 143.598 769.938 Q144.501 768.179 144.501 766.489 Q144.501 763.734 142.557 761.998 Q140.635 760.262 137.533 760.262 Q135.334 760.262 132.881 761.026 Q130.45 761.79 127.672 763.341 L127.672 758.619 Q130.496 757.484 132.95 756.906 Q135.404 756.327 137.441 756.327 Q142.811 756.327 146.006 759.012 Q149.2 761.697 149.2 766.188 Q149.2 768.318 148.39 770.239 Q147.603 772.137 145.496 774.73 Q144.918 775.401 141.816 778.618 Q138.714 781.813 133.066 787.577 Z" fill="#000000" fill-rule="evenodd" fill-opacity="1" /><path clip-path="url(#clip320)" d="M 0 0 M164.455 760.031 Q160.843 760.031 159.015 763.595 Q157.209 767.137 157.209 774.267 Q157.209 781.373 159.015 784.938 Q160.843 788.479 164.455 788.479 Q168.089 788.479 169.894 784.938 Q171.723 781.373 171.723 774.267 Q171.723 767.137 169.894 763.595 Q168.089 760.031 164.455 760.031 M164.455 756.327 Q170.265 756.327 173.32 760.933 Q176.399 765.517 176.399 774.267 Q176.399 782.993 173.32 787.6 Q170.265 792.183 164.455 792.183 Q158.644 792.183 155.566 787.6 Q152.51 782.993 152.51 774.267 Q152.51 765.517 155.566 760.933 Q158.644 756.327 164.455 756.327 Z" fill="#000000" fill-rule="evenodd" fill-opacity="1" /><path clip-path="url(#clip320)" d="M 0 0 M142.256 638.35 Q145.612 639.068 147.487 641.336 Q149.385 643.605 149.385 646.938 Q149.385 652.054 145.867 654.855 Q142.348 657.655 135.867 657.655 Q133.691 657.655 131.376 657.216 Q129.084 656.799 126.631 655.942 L126.631 651.429 Q128.575 652.563 130.89 653.142 Q133.205 653.72 135.728 653.72 Q140.126 653.72 142.418 651.984 Q144.732 650.248 144.732 646.938 Q144.732 643.882 142.58 642.169 Q140.45 640.433 136.631 640.433 L132.603 640.433 L132.603 636.591 L136.816 636.591 Q140.265 636.591 142.094 635.225 Q143.922 633.836 143.922 631.244 Q143.922 628.582 142.024 627.169 Q140.149 625.734 136.631 625.734 Q134.709 625.734 132.51 626.151 Q130.311 626.568 127.672 627.447 L127.672 623.281 Q130.334 622.54 132.649 622.17 Q134.987 621.799 137.047 621.799 Q142.371 621.799 145.473 624.23 Q148.575 626.637 148.575 630.757 Q148.575 633.628 146.932 635.619 Q145.288 637.586 142.256 638.35 Z" fill="#000000" fill-rule="evenodd" fill-opacity="1" /><path clip-path="url(#clip320)" d="M 0 0 M164.455 625.503 Q160.843 625.503 159.015 629.068 Q157.209 632.609 157.209 639.739 Q157.209 646.845 159.015 650.41 Q160.843 653.952 164.455 653.952 Q168.089 653.952 169.894 650.41 Q171.723 646.845 171.723 639.739 Q171.723 632.609 169.894 629.068 Q168.089 625.503 164.455 625.503 M164.455 621.799 Q170.265 621.799 173.32 626.406 Q176.399 630.989 176.399 639.739 Q176.399 648.466 173.32 653.072 Q170.265 657.655 164.455 657.655 Q158.644 657.655 155.566 653.072 Q152.51 648.466 152.51 639.739 Q152.51 630.989 155.566 626.406 Q158.644 621.799 164.455 621.799 Z" fill="#000000" fill-rule="evenodd" fill-opacity="1" /><path clip-path="url(#clip320)" d="M 0 0 M139.802 491.97 L127.996 510.419 L139.802 510.419 L139.802 491.97 M138.575 487.896 L144.455 487.896 L144.455 510.419 L149.385 510.419 L149.385 514.308 L144.455 514.308 L144.455 522.456 L139.802 522.456 L139.802 514.308 L124.2 514.308 L124.2 509.794 L138.575 487.896 Z" fill="#000000" fill-rule="evenodd" fill-opacity="1" /><path clip-path="url(#clip320)" d="M 0 0 M164.455 490.975 Q160.843 490.975 159.015 494.54 Q157.209 498.082 157.209 505.211 Q157.209 512.318 159.015 515.882 Q160.843 519.424 164.455 519.424 Q168.089 519.424 169.894 515.882 Q171.723 512.318 171.723 505.211 Q171.723 498.082 169.894 494.54 Q168.089 490.975 164.455 490.975 M164.455 487.271 Q170.265 487.271 173.32 491.878 Q176.399 496.461 176.399 505.211 Q176.399 513.938 173.32 518.544 Q170.265 523.128 164.455 523.128 Q158.644 523.128 155.566 518.544 Q152.51 513.938 152.51 505.211 Q152.51 496.461 155.566 491.878 Q158.644 487.271 164.455 487.271 Z" fill="#000000" fill-rule="evenodd" fill-opacity="1" /><path clip-path="url(#clip320)" d="M 0 0 M128.483 353.369 L146.839 353.369 L146.839 357.304 L132.765 357.304 L132.765 365.776 Q133.783 365.429 134.802 365.267 Q135.82 365.082 136.839 365.082 Q142.626 365.082 146.006 368.253 Q149.385 371.424 149.385 376.841 Q149.385 382.419 145.913 385.521 Q142.441 388.6 136.121 388.6 Q133.945 388.6 131.677 388.23 Q129.432 387.859 127.024 387.119 L127.024 382.419 Q129.108 383.554 131.33 384.109 Q133.552 384.665 136.029 384.665 Q140.033 384.665 142.371 382.558 Q144.709 380.452 144.709 376.841 Q144.709 373.23 142.371 371.123 Q140.033 369.017 136.029 369.017 Q134.154 369.017 132.279 369.433 Q130.427 369.85 128.483 370.73 L128.483 353.369 Z" fill="#000000" fill-rule="evenodd" fill-opacity="1" /><path clip-path="url(#clip320)" d="M 0 0 M164.455 356.447 Q160.843 356.447 159.015 360.012 Q157.209 363.554 157.209 370.683 Q157.209 377.79 159.015 381.355 Q160.843 384.896 164.455 384.896 Q168.089 384.896 169.894 381.355 Q171.723 377.79 171.723 370.683 Q171.723 363.554 169.894 360.012 Q168.089 356.447 164.455 356.447 M164.455 352.744 Q170.265 352.744 173.32 357.35 Q176.399 361.933 176.399 370.683 Q176.399 379.41 173.32 384.017 Q170.265 388.6 164.455 388.6 Q158.644 388.6 155.566 384.017 Q152.51 379.41 152.51 370.683 Q152.51 361.933 155.566 357.35 Q158.644 352.744 164.455 352.744 Z" fill="#000000" fill-rule="evenodd" fill-opacity="1" /><path clip-path="url(#clip320)" d="M 0 0 M137.857 234.258 Q134.709 234.258 132.858 236.41 Q131.029 238.563 131.029 242.313 Q131.029 246.04 132.858 248.216 Q134.709 250.369 137.857 250.369 Q141.006 250.369 142.834 248.216 Q144.686 246.04 144.686 242.313 Q144.686 238.563 142.834 236.41 Q141.006 234.258 137.857 234.258 M147.14 219.605 L147.14 223.864 Q145.381 223.031 143.575 222.591 Q141.793 222.151 140.033 222.151 Q135.404 222.151 132.95 225.276 Q130.52 228.401 130.172 234.721 Q131.538 232.707 133.598 231.642 Q135.658 230.554 138.135 230.554 Q143.344 230.554 146.353 233.725 Q149.385 236.873 149.385 242.313 Q149.385 247.637 146.237 250.855 Q143.089 254.072 137.857 254.072 Q131.862 254.072 128.691 249.489 Q125.52 244.883 125.52 236.156 Q125.52 227.961 129.408 223.1 Q133.297 218.216 139.848 218.216 Q141.607 218.216 143.39 218.563 Q145.195 218.91 147.14 219.605 Z" fill="#000000" fill-rule="evenodd" fill-opacity="1" /><path clip-path="url(#clip320)" d="M 0 0 M164.455 221.92 Q160.843 221.92 159.015 225.484 Q157.209 229.026 157.209 236.156 Q157.209 243.262 159.015 246.827 Q160.843 250.369 164.455 250.369 Q168.089 250.369 169.894 246.827 Q171.723 243.262 171.723 236.156 Q171.723 229.026 169.894 225.484 Q168.089 221.92 164.455 221.92 M164.455 218.216 Q170.265 218.216 173.32 222.822 Q176.399 227.406 176.399 236.156 Q176.399 244.883 173.32 249.489 Q170.265 254.072 164.455 254.072 Q158.644 254.072 155.566 249.489 Q152.51 244.883 152.51 236.156 Q152.51 227.406 155.566 222.822 Q158.644 218.216 164.455 218.216 Z" fill="#000000" fill-rule="evenodd" fill-opacity="1" /><path clip-path="url(#clip320)" d="M 0 0 M127.163 84.3133 L149.385 84.3133 L149.385 86.304 L136.839 118.873 L131.955 118.873 L143.76 88.2485 L127.163 88.2485 L127.163 84.3133 Z" fill="#000000" fill-rule="evenodd" fill-opacity="1" /><path clip-path="url(#clip320)" d="M 0 0 M164.455 87.392 Q160.843 87.392 159.015 90.9568 Q157.209 94.4984 157.209 101.628 Q157.209 108.734 159.015 112.299 Q160.843 115.841 164.455 115.841 Q168.089 115.841 169.894 112.299 Q171.723 108.734 171.723 101.628 Q171.723 94.4984 169.894 90.9568 Q168.089 87.392 164.455 87.392 M164.455 83.6883 Q170.265 83.6883 173.32 88.2948 Q176.399 92.8781 176.399 101.628 Q176.399 110.355 173.32 114.961 Q170.265 119.545 164.455 119.545 Q158.644 119.545 155.566 114.961 Q152.51 110.355 152.51 101.628 Q152.51 92.8781 155.566 88.2948 Q158.644 83.6883 164.455 83.6883 Z" fill="#000000" fill-rule="evenodd" fill-opacity="1" /><path clip-path="url(#clip320)" d="M 0 0 M59.7077 668.006 L77.5635 668.006 L77.5635 659.921 Q77.5635 655.433 75.24 652.983 Q72.9165 650.532 68.6197 650.532 Q64.3547 650.532 62.0312 652.983 Q59.7077 655.433 59.7077 659.921 L59.7077 668.006 M54.4242 674.435 L54.4242 659.921 Q54.4242 651.932 58.0526 647.858 Q61.6492 643.752 68.6197 643.752 Q75.6538 643.752 79.2504 647.858 Q82.847 651.932 82.847 659.921 L82.847 668.006 L101.944 668.006 L101.944 674.435 L54.4242 674.435 Z" fill="#000000" fill-rule="evenodd" fill-opacity="1" /><path clip-path="url(#clip320)" d="M 0 0 M84.0247 624.337 Q84.0247 631.435 85.6479 634.172 Q87.2712 636.909 91.1861 636.909 Q94.3053 636.909 96.1514 634.872 Q97.9656 632.803 97.9656 629.27 Q97.9656 624.401 94.5281 621.472 Q91.0588 618.512 85.3297 618.512 L84.0247 618.512 L84.0247 624.337 M81.6057 612.656 L101.944 612.656 L101.944 618.512 L96.5333 618.512 Q99.7798 620.518 101.339 623.509 Q102.867 626.501 102.867 630.83 Q102.867 636.305 99.8116 639.551 Q96.7243 642.766 91.5681 642.766 Q85.5525 642.766 82.4969 638.755 Q79.4414 634.713 79.4414 626.724 L79.4414 618.512 L78.8685 618.512 Q74.8262 618.512 72.6301 621.186 Q70.4021 623.828 70.4021 628.634 Q70.4021 631.689 71.1341 634.586 Q71.8662 637.482 73.3303 640.156 L67.9195 640.156 Q66.6781 636.941 66.0734 633.917 Q65.4368 630.894 65.4368 628.029 Q65.4368 620.295 69.4472 616.475 Q73.4576 612.656 81.6057 612.656 Z" fill="#000000" fill-rule="evenodd" fill-opacity="1" /><path clip-path="url(#clip320)" d="M 0 0 M80.4281 576.881 L101.944 576.881 L101.944 582.737 L80.619 582.737 Q75.5583 582.737 73.0438 584.71 Q70.5294 586.684 70.5294 590.631 Q70.5294 595.373 73.5531 598.11 Q76.5768 600.848 81.7967 600.848 L101.944 600.848 L101.944 606.736 L66.2962 606.736 L66.2962 600.848 L71.8344 600.848 Q68.6197 598.747 67.0283 595.914 Q65.4368 593.05 65.4368 589.326 Q65.4368 583.183 69.2563 580.032 Q73.0438 576.881 80.4281 576.881 Z" fill="#000000" fill-rule="evenodd" fill-opacity="1" /><path clip-path="url(#clip320)" d="M 0 0 M82.6561 540.246 L85.5206 540.246 L85.5206 567.173 Q91.5681 566.791 94.7509 563.544 Q97.9019 560.266 97.9019 554.442 Q97.9019 551.068 97.0744 547.917 Q96.2469 544.734 94.5918 541.615 L100.13 541.615 Q101.467 544.766 102.167 548.076 Q102.867 551.386 102.867 554.792 Q102.867 563.322 97.9019 568.319 Q92.9367 573.284 84.4703 573.284 Q75.7174 573.284 70.5931 568.573 Q65.4368 563.831 65.4368 555.81 Q65.4368 548.617 70.0838 544.447 Q74.6989 540.246 82.6561 540.246 M80.9373 546.102 Q76.1312 546.166 73.2666 548.808 Q70.4021 551.418 70.4021 555.746 Q70.4021 560.648 73.1712 563.608 Q75.9402 566.536 80.9692 566.982 L80.9373 546.102 Z" fill="#000000" fill-rule="evenodd" fill-opacity="1" /><path clip-path="url(#clip320)" d="M 0 0 M52.419 534.103 L52.419 528.247 L101.944 528.247 L101.944 534.103 L52.419 534.103 Z" fill="#000000" fill-rule="evenodd" fill-opacity="1" /><path clip-path="url(#clip320)" d="M 0 0 M55.9838 472.642 L62.254 472.642 Q60.5034 476.302 59.644 479.549 Q58.7847 482.795 58.7847 485.819 Q58.7847 491.071 60.8217 493.935 Q62.8587 496.768 66.6145 496.768 Q69.7655 496.768 71.3888 494.89 Q72.9802 492.981 73.9669 487.697 L74.7626 483.814 Q76.1312 476.621 79.6005 473.215 Q83.038 469.778 88.8308 469.778 Q95.7376 469.778 99.3024 474.425 Q102.867 479.04 102.867 487.984 Q102.867 491.357 102.103 495.177 Q101.339 498.964 99.8435 503.038 L93.2231 503.038 Q95.4193 499.124 96.5333 495.368 Q97.6473 491.612 97.6473 487.984 Q97.6473 482.477 95.483 479.485 Q93.3186 476.493 89.3082 476.493 Q85.8071 476.493 83.8337 478.658 Q81.8604 480.79 80.8737 485.692 L80.1098 489.607 Q78.6775 496.8 75.622 500.015 Q72.5664 503.229 67.1237 503.229 Q60.8217 503.229 57.1932 498.805 Q53.5648 494.349 53.5648 486.551 Q53.5648 483.209 54.1695 479.74 Q54.7743 476.271 55.9838 472.642 Z" fill="#000000" fill-rule="evenodd" fill-opacity="1" /><path clip-path="url(#clip320)" d="M 0 0 M66.2962 463.635 L66.2962 457.778 L101.944 457.778 L101.944 463.635 L66.2962 463.635 M52.419 463.635 L52.419 457.778 L59.835 457.778 L59.835 463.635 L52.419 463.635 Z" fill="#000000" fill-rule="evenodd" fill-opacity="1" /><path clip-path="url(#clip320)" d="M 0 0 M66.2962 454.182 L66.2962 426.363 L71.6434 426.363 L97.2654 448.389 L97.2654 426.363 L101.944 426.363 L101.944 454.977 L96.597 454.977 L70.975 432.952 L70.975 454.182 L66.2962 454.182 Z" fill="#000000" fill-rule="evenodd" fill-opacity="1" /><path clip-path="url(#clip320)" d="M 0 0 M82.6561 389.729 L85.5206 389.729 L85.5206 416.656 Q91.5681 416.274 94.7509 413.027 Q97.9019 409.749 97.9019 403.924 Q97.9019 400.551 97.0744 397.4 Q96.2469 394.217 94.5918 391.097 L100.13 391.097 Q101.467 394.249 102.167 397.559 Q102.867 400.869 102.867 404.274 Q102.867 412.805 97.9019 417.802 Q92.9367 422.767 84.4703 422.767 Q75.7174 422.767 70.5931 418.056 Q65.4368 413.314 65.4368 405.293 Q65.4368 398.1 70.0838 393.93 Q74.6989 389.729 82.6561 389.729 M80.9373 395.585 Q76.1312 395.649 73.2666 398.291 Q70.4021 400.901 70.4021 405.229 Q70.4021 410.131 73.1712 413.091 Q75.9402 416.019 80.9692 416.465 L80.9373 395.585 Z" fill="#000000" fill-rule="evenodd" fill-opacity="1" /><polyline clip-path="url(#clip322)" style="stroke:#009af9; stroke-width:4; stroke-opacity:1; fill:none" points="
  238.673,989.476 271.386,881.854 304.099,881.854 336.812,828.043 369.525,774.232 402.238,720.421 434.951,720.421 467.664,666.61 500.378,666.61 533.091,612.799 
  565.804,612.799 598.517,558.988 631.23,558.988 663.943,558.988 696.656,505.176 729.369,505.176 762.082,451.365 794.795,451.365 827.508,451.365 860.221,397.554 
  892.934,397.554 925.647,397.554 958.36,343.743 991.073,343.743 1023.79,289.932 1056.5,289.932 1089.21,289.932 1121.93,236.121 1154.64,236.121 1187.35,236.121 
  1220.06,236.121 1252.78,182.31 1285.49,182.31 1318.2,182.31 1350.92,128.499 1383.63,128.499 1416.34,128.499 1449.06,74.6877 1481.77,74.6877 1514.48,74.6877 
  
  "/>
</svg>
